<mxfile host="app.diagrams.net" modified="2023-05-15T19:03:02.161Z" agent="Mozilla/5.0 (X11; Linux x86_64) AppleWebKit/537.36 (KHTML, like Gecko) Chrome/110.0.0.0 Safari/537.36" etag="xYt5BSem0-ig2jwNufow" version="21.3.0" type="device">
  <diagram name="Страница 1" id="2rnnwbcf6SuGSth6uXoj">
    <mxGraphModel dx="978" dy="530" grid="1" gridSize="10" guides="1" tooltips="1" connect="1" arrows="1" fold="1" page="1" pageScale="1" pageWidth="800" pageHeight="550" math="0" shadow="0">
      <root>
        <mxCell id="0" />
        <mxCell id="1" parent="0" />
        <mxCell id="-jFg5kQL0HPZWE4GDPes-1" value="" style="shape=cylinder;whiteSpace=wrap;html=1;boundedLbl=1;backgroundOutline=1;" parent="1" vertex="1">
          <mxGeometry x="505" y="123" width="120" height="160" as="geometry" />
        </mxCell>
        <mxCell id="-jFg5kQL0HPZWE4GDPes-2" value="Вторичное&lt;br&gt;хранилище" style="text;html=1;align=center;verticalAlign=middle;resizable=0;points=[];autosize=1;strokeColor=none;fillColor=none;fontFamily=Times New Roman;fontSize=14;" parent="1" vertex="1">
          <mxGeometry x="595" y="73" width="90" height="50" as="geometry" />
        </mxCell>
        <mxCell id="-jFg5kQL0HPZWE4GDPes-51" style="edgeStyle=orthogonalEdgeStyle;rounded=0;orthogonalLoop=1;jettySize=auto;html=1;exitX=0.5;exitY=1;exitDx=0;exitDy=0;entryX=1;entryY=0.5;entryDx=0;entryDy=0;" parent="1" source="-jFg5kQL0HPZWE4GDPes-6" target="-jFg5kQL0HPZWE4GDPes-16" edge="1">
          <mxGeometry relative="1" as="geometry" />
        </mxCell>
        <mxCell id="-jFg5kQL0HPZWE4GDPes-6" value="" style="rounded=0;whiteSpace=wrap;html=1;fillColor=#CCCCCC;" parent="1" vertex="1">
          <mxGeometry x="550" y="208" width="30" height="30" as="geometry" />
        </mxCell>
        <mxCell id="-jFg5kQL0HPZWE4GDPes-15" value="" style="rounded=0;whiteSpace=wrap;html=1;" parent="1" vertex="1">
          <mxGeometry x="205" y="228" width="160" height="280" as="geometry" />
        </mxCell>
        <mxCell id="-jFg5kQL0HPZWE4GDPes-16" value="Свободный &lt;br&gt;страничный кадр" style="rounded=0;whiteSpace=wrap;html=1;fontFamily=Times New Roman;fontSize=14;" parent="1" vertex="1">
          <mxGeometry x="205" y="308" width="160" height="40" as="geometry" />
        </mxCell>
        <mxCell id="-jFg5kQL0HPZWE4GDPes-17" value="" style="rounded=0;whiteSpace=wrap;html=1;fontFamily=Times New Roman;fontSize=14;labelBackgroundColor=none;fillColor=#CCCCCC;" parent="1" vertex="1">
          <mxGeometry x="205" y="228" width="160" height="40" as="geometry" />
        </mxCell>
        <mxCell id="-jFg5kQL0HPZWE4GDPes-22" value="..." style="rounded=0;whiteSpace=wrap;html=1;fontFamily=Times New Roman;fontSize=14;labelBackgroundColor=none;fillColor=#CCCCCC;" parent="1" vertex="1">
          <mxGeometry x="205" y="268" width="160" height="40" as="geometry" />
        </mxCell>
        <mxCell id="-jFg5kQL0HPZWE4GDPes-23" value="..." style="rounded=0;whiteSpace=wrap;html=1;fontFamily=Times New Roman;fontSize=14;labelBackgroundColor=none;fillColor=#CCCCCC;" parent="1" vertex="1">
          <mxGeometry x="205" y="348" width="160" height="40" as="geometry" />
        </mxCell>
        <mxCell id="-jFg5kQL0HPZWE4GDPes-24" value="" style="rounded=0;whiteSpace=wrap;html=1;fontFamily=Times New Roman;fontSize=14;labelBackgroundColor=none;fillColor=#CCCCCC;" parent="1" vertex="1">
          <mxGeometry x="205" y="468" width="160" height="40" as="geometry" />
        </mxCell>
        <mxCell id="-jFg5kQL0HPZWE4GDPes-25" value="..." style="rounded=0;whiteSpace=wrap;html=1;fontFamily=Times New Roman;fontSize=14;labelBackgroundColor=none;fillColor=#CCCCCC;" parent="1" vertex="1">
          <mxGeometry x="205" y="428" width="160" height="40" as="geometry" />
        </mxCell>
        <mxCell id="-jFg5kQL0HPZWE4GDPes-26" value="Физическая память" style="text;html=1;align=center;verticalAlign=middle;resizable=0;points=[];autosize=1;strokeColor=none;fillColor=none;fontFamily=Times New Roman;fontSize=14;" parent="1" vertex="1">
          <mxGeometry x="215" y="508" width="140" height="30" as="geometry" />
        </mxCell>
        <mxCell id="-jFg5kQL0HPZWE4GDPes-28" value="Физическая&lt;br&gt;страница" style="text;html=1;align=center;verticalAlign=middle;resizable=0;points=[];autosize=1;strokeColor=none;fillColor=none;fontFamily=Times New Roman;fontSize=14;" parent="1" vertex="1">
          <mxGeometry x="635" y="198" width="90" height="50" as="geometry" />
        </mxCell>
        <mxCell id="-jFg5kQL0HPZWE4GDPes-30" value="" style="endArrow=classic;html=1;rounded=0;entryX=1;entryY=0.5;entryDx=0;entryDy=0;exitX=0.111;exitY=0.5;exitDx=0;exitDy=0;exitPerimeter=0;" parent="1" source="-jFg5kQL0HPZWE4GDPes-28" target="-jFg5kQL0HPZWE4GDPes-6" edge="1">
          <mxGeometry width="50" height="50" relative="1" as="geometry">
            <mxPoint x="395" y="273" as="sourcePoint" />
            <mxPoint x="445" y="223" as="targetPoint" />
          </mxGeometry>
        </mxCell>
        <mxCell id="-jFg5kQL0HPZWE4GDPes-31" value="" style="rounded=0;whiteSpace=wrap;html=1;" parent="1" vertex="1">
          <mxGeometry x="205" y="13" width="160" height="160" as="geometry" />
        </mxCell>
        <mxCell id="-jFg5kQL0HPZWE4GDPes-32" value="" style="rounded=0;whiteSpace=wrap;html=1;" parent="1" vertex="1">
          <mxGeometry x="205" y="78" width="160" height="30" as="geometry" />
        </mxCell>
        <mxCell id="-jFg5kQL0HPZWE4GDPes-50" style="edgeStyle=orthogonalEdgeStyle;rounded=0;orthogonalLoop=1;jettySize=auto;html=1;exitX=1;exitY=0.5;exitDx=0;exitDy=0;entryX=0.5;entryY=0;entryDx=0;entryDy=0;" parent="1" source="-jFg5kQL0HPZWE4GDPes-33" target="-jFg5kQL0HPZWE4GDPes-6" edge="1">
          <mxGeometry relative="1" as="geometry" />
        </mxCell>
        <mxCell id="-jFg5kQL0HPZWE4GDPes-33" value="0" style="rounded=0;whiteSpace=wrap;html=1;fontFamily=Times New Roman;fontSize=14;" parent="1" vertex="1">
          <mxGeometry x="325" y="78" width="40" height="30" as="geometry" />
        </mxCell>
        <mxCell id="-jFg5kQL0HPZWE4GDPes-34" value="..." style="rounded=0;whiteSpace=wrap;html=1;fontFamily=Times New Roman;fontSize=14;" parent="1" vertex="1">
          <mxGeometry x="205" y="43" width="160" height="35" as="geometry" />
        </mxCell>
        <mxCell id="-jFg5kQL0HPZWE4GDPes-35" value="Бит &lt;br&gt;присутствия-&lt;br&gt;отсутствия" style="text;html=1;align=center;verticalAlign=middle;resizable=0;points=[];autosize=1;strokeColor=none;fillColor=none;fontFamily=Times New Roman;fontSize=14;" parent="1" vertex="1">
          <mxGeometry x="75" y="63" width="100" height="60" as="geometry" />
        </mxCell>
        <mxCell id="-jFg5kQL0HPZWE4GDPes-41" value="..." style="rounded=0;whiteSpace=wrap;html=1;fontFamily=Times New Roman;fontSize=14;" parent="1" vertex="1">
          <mxGeometry x="205" y="108" width="160" height="35" as="geometry" />
        </mxCell>
        <mxCell id="-jFg5kQL0HPZWE4GDPes-44" value="" style="endArrow=classic;html=1;rounded=0;entryX=0;entryY=0.5;entryDx=0;entryDy=0;exitX=1.02;exitY=0.508;exitDx=0;exitDy=0;exitPerimeter=0;" parent="1" source="-jFg5kQL0HPZWE4GDPes-35" target="-jFg5kQL0HPZWE4GDPes-33" edge="1">
          <mxGeometry width="50" height="50" relative="1" as="geometry">
            <mxPoint x="195" y="92.5" as="sourcePoint" />
            <mxPoint x="275" y="92.5" as="targetPoint" />
          </mxGeometry>
        </mxCell>
        <mxCell id="-jFg5kQL0HPZWE4GDPes-45" value="Таблица страниц" style="text;html=1;align=center;verticalAlign=middle;resizable=0;points=[];autosize=1;strokeColor=none;fillColor=none;fontFamily=Times New Roman;fontSize=14;" parent="1" vertex="1">
          <mxGeometry x="225" y="173" width="120" height="30" as="geometry" />
        </mxCell>
        <mxCell id="-jFg5kQL0HPZWE4GDPes-49" value="page fault" style="text;html=1;align=center;verticalAlign=middle;resizable=0;points=[];autosize=1;strokeColor=none;fillColor=none;fontFamily=Times New Roman;fontSize=14;" parent="1" vertex="1">
          <mxGeometry x="425" y="63" width="80" height="30" as="geometry" />
        </mxCell>
      </root>
    </mxGraphModel>
  </diagram>
</mxfile>
